<svg width="712" height="162" viewBox="0 0 712 162" fill="none" xmlns="http://www.w3.org/2000/svg">
<path d="M32.896 140.024C29.9947 140.024 27.3067 139.725 24.832 139.128C22.3573 138.531 19.7547 137.293 17.024 135.416C14.3787 133.453 12.1173 130.893 10.24 127.736C5.97333 120.568 3.84 109.773 3.84 95.352C3.84 87.416 4.90667 80.4187 7.04 74.36C9.17333 68.3013 11.8613 63.608 15.104 60.28C18.3467 56.8667 22.2293 54.0933 26.752 51.96C31.2747 49.8267 35.4987 48.4613 39.424 47.864C43.3493 47.1813 47.5307 46.84 51.968 46.84C62.208 46.84 69.4187 47.736 73.6 49.528C77.7813 51.2347 79.872 54.5627 79.872 59.512C79.872 63.4373 79.1467 67.704 77.696 72.312C76.2453 76.8347 74.112 79.096 71.296 79.096C70.6133 79.096 67.712 78.456 62.592 77.176C57.472 75.8107 53.632 75.128 51.072 75.128C43.7333 75.128 40.064 81.3147 40.064 93.688C40.064 99.9173 40.9173 104.568 42.624 107.64C44.3307 110.627 46.464 112.291 49.024 112.632V101.112C49.024 98.9787 51.2 97.016 55.552 95.224C59.904 93.432 64.0853 92.536 68.096 92.536C72.1067 92.536 75.008 92.792 76.8 93.304C78.6773 93.816 79.9573 94.5413 80.64 95.48C81.8347 97.016 82.432 98.3813 82.432 99.576V135.032C82.432 136.141 80.1707 137.037 75.648 137.72C71.2107 138.403 66.56 138.744 61.696 138.744C56.9173 138.744 53.888 138.531 52.608 138.104C51.328 137.592 50.6027 136.269 50.432 134.136L49.536 126.584H48.512C47.9147 130.253 46.3787 133.411 43.904 136.056C41.5147 138.701 37.8453 140.024 32.896 140.024ZM125.93 72.824V135.928C125.93 136.867 123.455 137.635 118.506 138.232C113.642 138.744 108.607 139 103.402 139C98.282 139 94.954 138.787 93.418 138.36C91.9673 137.848 91.242 137.037 91.242 135.928V75.128C91.242 73.2507 93.6313 71.416 98.41 69.624C103.274 67.7467 108.565 66.808 114.282 66.808C122.047 66.808 125.93 68.8133 125.93 72.824ZM108.522 39.16C114.154 39.16 118.549 40.0133 121.706 41.72C124.949 43.3413 126.57 46.328 126.57 50.68C126.57 58.36 120.597 62.2 108.65 62.2C96.7033 62.2 90.73 58.36 90.73 50.68C90.73 43 96.6607 39.16 108.522 39.16ZM176.824 96.76V135.928C176.824 136.867 174.477 137.635 169.784 138.232C165.091 138.744 159.331 139 152.504 139C145.677 139 142.264 137.976 142.264 135.928V96.76H135.736C133.432 96.76 132.28 92.8773 132.28 85.112C132.28 82.04 132.792 79.1813 133.816 76.536C134.925 73.8053 136.333 72.44 138.04 72.44H142.264C142.264 66.7227 143.075 61.7307 144.696 57.464C146.403 53.1973 148.408 49.9547 150.712 47.736C153.101 45.432 155.96 43.5973 159.288 42.232C164.237 40.184 169.869 39.16 176.184 39.16C192.056 39.16 199.992 41.7627 199.992 46.968C199.992 52.6 199.437 57.208 198.328 60.792C197.219 64.376 195.725 66.168 193.848 66.168C193.08 66.168 191.629 65.912 189.496 65.4C187.448 64.8027 185.485 64.504 183.608 64.504C178.659 64.504 176.184 66.2107 176.184 69.624C176.184 70.4773 176.397 71.416 176.824 72.44H193.848C196.152 72.44 197.304 76.1947 197.304 83.704C197.304 87.032 196.792 90.0613 195.768 92.792C194.829 95.4373 193.549 96.76 191.928 96.76H176.824ZM257.284 137.848C255.748 139.299 252.249 140.024 246.788 140.024C241.327 140.024 236.804 139.683 233.22 139C229.636 138.232 226.223 136.781 222.98 134.648C216.751 130.467 213.636 121.763 213.636 108.536V88.568H207.236C206.297 88.568 205.487 87.5867 204.804 85.624C204.121 83.6613 203.78 80.9733 203.78 77.56C203.78 74.1467 204.292 71.16 205.316 68.6C206.425 65.9547 207.833 64.632 209.54 64.632H213.636V49.144C213.636 46.4987 216.196 44.3653 221.316 42.744C226.521 41.1227 231.599 40.312 236.548 40.312C244.313 40.312 248.196 42.232 248.196 46.072V64.632H257.668C259.887 64.632 260.996 67.832 260.996 74.232C260.996 78.4133 260.484 81.8693 259.46 84.6C258.521 87.2453 257.284 88.568 255.748 88.568H248.196V111.992C248.196 114.296 249.177 115.96 251.14 116.984C253.103 117.923 254.809 118.392 256.26 118.392C257.796 118.392 258.735 119.117 259.076 120.568C259.417 122.019 259.588 124.195 259.588 127.096C259.588 132.813 258.82 136.397 257.284 137.848ZM293.05 140.152C285.285 140.152 279.183 138.317 274.746 134.648C272.954 133.112 271.375 130.851 270.01 127.864C268.73 124.877 268.09 121.379 268.09 117.368C268.09 113.357 269.029 109.859 270.906 106.872C272.869 103.885 275.215 101.581 277.946 99.96C280.677 98.3387 283.877 97.016 287.546 95.992C293.093 94.5413 299.194 93.816 305.85 93.816H310.074C310.074 90.3173 308.879 87.8427 306.49 86.392C305.466 85.7947 303.887 85.496 301.754 85.496C299.706 85.496 297.189 86.0507 294.202 87.16C291.301 88.2693 288.869 89.4213 286.906 90.616C284.943 91.7253 283.621 92.28 282.938 92.28C281.402 92.28 279.311 90.2747 276.666 86.264C274.021 82.168 272.698 78.456 272.698 75.128C272.698 74.0187 274.277 72.568 277.434 70.776C280.591 68.984 285.029 67.3627 290.746 65.912C296.549 64.376 302.181 63.608 307.642 63.608C313.103 63.608 317.797 64.0773 321.722 65.016C325.733 65.8693 328.975 66.936 331.45 68.216C334.01 69.496 336.143 71.2027 337.85 73.336C339.642 75.4693 340.965 77.3893 341.818 79.096C342.757 80.8027 343.439 83.0213 343.866 85.752C344.463 88.9093 344.762 92.792 344.762 97.4V135.928C344.762 136.867 342.458 137.635 337.85 138.232C333.327 138.744 328.805 139 324.282 139C319.845 139 316.943 138.872 315.578 138.616C314.298 138.36 313.53 138.061 313.274 137.72C313.018 137.379 312.805 136.781 312.634 135.928L311.61 128.632H310.586C308.453 136.312 302.607 140.152 293.05 140.152ZM310.202 118.904V103.928C307.983 103.928 306.191 104.867 304.826 106.744C303.461 108.621 302.778 110.755 302.778 113.144C302.778 118.776 304.058 121.592 306.618 121.592C307.727 121.592 308.581 121.336 309.178 120.824C309.861 120.227 310.202 119.587 310.202 118.904ZM360.77 137.72C356.077 136.525 353.73 134.733 353.73 132.344V51.192C353.73 49.3147 356.247 47.48 361.282 45.688C366.317 43.896 371.607 43 377.154 43C384.663 43 388.418 44.9627 388.418 48.888V63.352L387.01 72.184H388.034C388.546 71.416 389.485 70.4773 390.85 69.368C392.301 68.2587 393.794 67.32 395.33 66.552C399.085 64.5893 403.223 63.608 407.746 63.608C412.269 63.608 415.81 64.2053 418.37 65.4C421.015 66.5093 423.106 68.0027 424.642 69.88C426.263 71.672 427.543 73.976 428.482 76.792C430.103 81.656 430.914 87.7147 430.914 94.968C430.914 107 429.549 116.216 426.818 122.616C424.087 129.016 419.65 133.539 413.506 136.184C407.362 138.829 398.701 140.152 387.522 140.152C376.343 140.152 367.426 139.341 360.77 137.72ZM388.29 121.336H392.258C394.989 121.336 396.354 114.808 396.354 101.752C396.354 88.6107 394.946 82.04 392.13 82.04H388.29V121.336ZM473.79 45.048V135.928C473.79 136.867 471.358 137.635 466.494 138.232C461.63 138.744 456.595 139 451.39 139C446.27 139 442.942 138.787 441.406 138.36C439.955 137.848 439.23 137.037 439.23 135.928V47.352C439.23 45.4747 441.619 43.64 446.398 41.848C451.262 40.056 456.467 39.16 462.014 39.16C469.865 39.16 473.79 41.1227 473.79 45.048ZM516.394 110.072C516.394 115.619 519.039 118.392 524.33 118.392C527.402 118.392 531.413 117.368 536.362 115.32C541.311 113.187 543.914 112.12 544.17 112.12C545.791 112.12 547.925 114.552 550.57 119.416C553.215 124.28 554.538 127.864 554.538 130.168C554.538 133.496 551.125 136.013 544.298 137.72C537.471 139.427 530.773 140.28 524.202 140.28C517.717 140.28 512.255 139.768 507.818 138.744C503.466 137.72 499.882 136.44 497.066 134.904C494.335 133.283 491.903 131.32 489.77 129.016C487.722 126.712 486.186 124.536 485.162 122.488C484.138 120.355 483.327 118.008 482.73 115.448C481.877 111.693 481.45 107.811 481.45 103.8C481.45 88.2693 485.503 77.56 493.61 71.672C497.621 68.6853 502.101 66.5947 507.05 65.4C511.999 64.2053 517.845 63.608 524.586 63.608C546.175 63.608 556.97 71.1173 556.97 86.136C556.97 102.093 544.853 110.072 520.618 110.072H516.394ZM516.138 91.384V99.832C518.613 99.832 520.618 98.8507 522.154 96.888C523.775 94.9253 524.586 92.536 524.586 89.72C524.586 84.6 523.263 82.04 520.618 82.04C517.631 82.04 516.138 85.1547 516.138 91.384Z" fill="#F87171"/>
<path d="M653.78 74.2454V135.425M700.457 88.1283L709.038 73.8271C709.567 72.9465 709.27 71.8037 708.381 71.2905L616.04 18.0169C615.167 17.5131 614.051 17.8069 613.539 18.6753L605.116 32.9648C604.597 33.8442 604.895 34.9775 605.779 35.4884L697.963 88.7736C698.831 89.2756 699.941 88.9883 700.457 88.1283Z" stroke="#4E98A5" stroke-width="4.40937"/>
<path d="M651.208 40.624L642.757 54.4032M670.316 51.4637L661.313 65.4267" stroke="#4E98A5" stroke-width="4.40937"/>
<path d="M628.794 74.2454V135.242" stroke="#4E98A5" stroke-width="4.40937"/>
<path d="M596.275 72.4081H668.712C669.04 72.4081 669.362 72.4961 669.645 72.6628L689.805 84.552C690.365 84.8823 690.709 85.4842 690.709 86.1345V135.425C690.709 136.44 689.886 137.263 688.872 137.263H596.275C595.26 137.263 594.438 136.44 594.438 135.425V74.2454C594.438 73.2307 595.26 72.4081 596.275 72.4081Z" stroke="#4E98A5" stroke-width="4.40937"/>
<path d="M596.042 1.12521C596.214 0.813521 596.684 0.903911 596.728 1.25712L597.574 8.02547C597.594 8.18343 597.713 8.31072 597.869 8.34076L604.568 9.62808C604.917 9.69526 604.977 10.1705 604.654 10.3216L598.479 13.2174C598.334 13.2849 598.25 13.4377 598.27 13.5956L599.116 20.364C599.16 20.7172 598.726 20.9205 598.483 20.6607L593.82 15.682C593.711 15.5658 593.54 15.5329 593.396 15.6005L587.22 18.4962C586.898 18.6473 586.571 18.2978 586.743 17.9861L590.037 12.0133C590.114 11.8739 590.092 11.7009 589.983 11.5847L585.321 6.60603C585.077 6.34621 585.309 5.92684 585.658 5.99402L592.357 7.28134C592.513 7.31138 592.671 7.23735 592.748 7.09795L596.042 1.12521Z" fill="#F59E0B" stroke="#F59E0B" stroke-width="1.83724"/>
<path d="M571.295 26.5708C571.242 26.2187 571.671 26.0054 571.92 26.2595L576.697 31.1291C576.808 31.2428 576.98 31.2717 577.123 31.2008L583.23 28.1632C583.549 28.0046 583.884 28.3466 583.719 28.6621L580.564 34.7094C580.49 34.8505 580.516 35.023 580.627 35.1367L585.404 40.0063C585.653 40.2604 585.431 40.685 585.08 40.6259L578.354 39.4937C578.197 39.4673 578.041 39.545 577.967 39.6861L574.812 45.7334C574.647 46.049 574.175 45.9695 574.123 45.6174L573.121 38.8704C573.097 38.7129 572.975 38.5884 572.818 38.562L566.092 37.4298C565.741 37.3707 565.671 36.8969 565.989 36.7384L572.097 33.7007C572.239 33.6299 572.32 33.4752 572.296 33.3178L571.295 26.5708Z" fill="#F59E0B" stroke="#F59E0B" stroke-width="1.83724"/>
<path d="M595.161 42.7647C595.228 42.4151 595.703 42.356 595.854 42.6783L598.747 48.8553C598.815 48.9995 598.968 49.0837 599.125 49.0641L605.894 48.2213C606.247 48.1773 606.451 48.611 606.191 48.8542L601.21 53.5146C601.094 53.6234 601.061 53.7946 601.128 53.9388L604.021 60.1158C604.172 60.4381 603.823 60.7653 603.511 60.5933L597.54 57.2966C597.4 57.2196 597.227 57.2412 597.111 57.3499L592.13 62.0103C591.871 62.2535 591.451 62.022 591.519 61.6725L592.809 54.9746C592.839 54.8183 592.765 54.6604 592.626 54.5835L586.654 51.2867C586.343 51.1147 586.433 50.6444 586.786 50.6004L593.555 49.7576C593.713 49.738 593.84 49.6188 593.87 49.4625L595.161 42.7647Z" fill="#F59E0B" stroke="#F59E0B" stroke-width="1.83724"/>
<path d="M662.758 38.2987L638.136 24.8577C635.069 23.5851 634.122 18.3933 635.725 12.9555C637.328 7.51771 643.424 3.14874 650.44 3.14649C657.455 3.14424 662.762 8.35231 664.793 15.0263C666.328 20.0687 665.786 31.5426 665.43 36.8515C665.341 38.1718 663.92 38.9327 662.758 38.2987Z" fill="#4E98A5" stroke="#4E98A5" stroke-width="4.40937" stroke-linecap="round"/>
<path d="M701.435 32.768C697.648 26.7493 693.958 24.219 683.974 26.2667C673.99 28.3145 663.702 38.7867 663.702 38.7867L688.772 54.2718C691.406 56.2929 696.454 53.7758 700.287 50.415C704.121 47.0543 705.223 38.7867 701.435 32.768Z" fill="#4E98A5" stroke="#4E98A5" stroke-width="4.40937" stroke-linecap="round"/>
<rect x="596.374" y="74.108" width="31.0863" height="61.1007" fill="#4E98A5"/>
<path d="M668.194 74.108H655.867V135.209H689.097V86.4353L668.194 74.108Z" fill="#4E98A5"/>
<rect x="614.973" y="19.1306" width="40.1285" height="17.2542" transform="rotate(30.023 614.973 19.1306)" fill="#4E98A5"/>
<rect x="671.467" y="51.5971" width="42.108" height="17.2542" transform="rotate(30.023 671.467 51.5971)" fill="#4E98A5"/>
</svg>
